<svg width="24" height="24" viewBox="0 0 24 24" fill="none" xmlns="http://www.w3.org/2000/svg">
<path d="M3.64911 12.8184C2.95551 12.528 2.93751 11.5116 3.62031 11.196C3.77391 11.124 4.08351 11.1216 11.9999 11.1216C19.9163 11.1216 20.2259 11.124 20.3795 11.196C20.5329 11.2657 20.6623 11.3793 20.7513 11.5223C20.8403 11.6654 20.8851 11.8316 20.8799 12C20.8851 12.1684 20.8403 12.3346 20.7513 12.4777C20.6623 12.6208 20.5329 12.7343 20.3795 12.804C20.2259 12.876 19.9163 12.8784 12.0083 12.8796C4.67391 12.8796 3.78111 12.8736 3.64911 12.8184Z" fill="#93A8C0"/>
<path d="M11.6482 19.8179C10.9558 19.5287 10.9378 18.5111 11.6194 18.1955C11.7718 18.1247 11.977 18.1211 15.9994 18.1211C20.023 18.1211 20.227 18.1247 20.3794 18.1955C20.695 18.3419 20.8798 18.6395 20.8798 18.9995C20.885 19.1679 20.8402 19.3341 20.7512 19.4772C20.6622 19.6203 20.5328 19.7338 20.3794 19.8035C20.227 19.8743 20.0218 19.8779 16.009 19.8791C12.2902 19.8803 11.7802 19.8731 11.6482 19.8179Z" fill="#93A8C0"/>
<path fill-rule="evenodd" clip-rule="evenodd" d="M7.6199 4.19631C6.9383 4.51191 6.9563 5.52831 7.6487 5.81751C7.7807 5.87271 8.4827 5.87991 14.0003 5.87991C20.7983 5.87991 20.3507 5.89551 20.6147 5.64831C20.9663 5.31831 20.9663 4.68111 20.6147 4.35231C20.3507 4.10391 20.7995 4.11951 13.9907 4.12071C8.0303 4.12191 7.7735 4.12431 7.6199 4.19631Z" fill="#93A8C0"/>
</svg>
