<svg width="24" height="24" viewBox="0 0 24 24" fill="none" xmlns="http://www.w3.org/2000/svg">
<path fill-rule="evenodd" clip-rule="evenodd" d="M4.56885 7.94523C4.56885 4.73419 7.5566 1.25012 12 1.25012C16.4434 1.25012 19.4312 4.73418 19.4312 7.94523C19.4312 8.76902 19.536 9.34584 19.6792 9.78941C19.8227 10.2344 20.014 10.5763 20.2344 10.9452C20.257 10.983 20.2801 11.0214 20.3037 11.0606C20.5048 11.3947 20.7382 11.7826 20.9164 12.2489C21.1219 12.7865 21.25 13.4103 21.25 14.2206C21.25 14.2422 21.2491 14.2639 21.2472 14.2854C21.1745 15.1232 20.9256 15.8585 20.452 16.4711C19.9804 17.081 19.3291 17.5139 18.5437 17.8214C17.0092 18.4224 14.817 18.5978 12 18.5978C9.18431 18.5978 6.99217 18.4253 5.45761 17.8258C4.672 17.5189 4.0203 17.0863 3.54844 16.4755C3.07461 15.8621 2.82571 15.1255 2.75281 14.2854C2.75094 14.2639 2.75 14.2422 2.75 14.2206C2.75 13.4103 2.87812 12.7865 3.08361 12.2488C3.26179 11.7826 3.49524 11.3947 3.69634 11.0606C3.71991 11.0214 3.74304 10.983 3.76558 10.9452C3.986 10.5763 4.17732 10.2344 4.32089 9.78941C4.464 9.34584 4.56885 8.76901 4.56885 7.94523ZM12 2.75012C8.35294 2.75012 6.06885 5.59434 6.06885 7.94523C6.06885 8.90159 5.94635 9.63654 5.74842 10.25C5.55096 10.862 5.28756 11.3224 5.05327 11.7145C5.03009 11.7533 5.00741 11.7912 4.98522 11.8282C4.77775 12.1741 4.61303 12.4487 4.48478 12.7843C4.35156 13.1329 4.25342 13.5649 4.25009 14.1877C4.30676 14.7885 4.47738 15.2244 4.73548 15.5585C5.00011 15.901 5.40044 16.1931 6.00343 16.4286C7.24608 16.9141 9.17746 17.0978 12 17.0978C14.8222 17.0978 16.7541 16.9114 17.9967 16.4247C18.6 16.1885 19.0006 15.896 19.2653 15.5536C19.5233 15.2198 19.6935 14.7853 19.7499 14.1877C19.7466 13.5649 19.6484 13.1329 19.5152 12.7843C19.387 12.4487 19.2223 12.1741 19.0148 11.8281C18.9926 11.7911 18.9699 11.7533 18.9468 11.7145C18.7125 11.3224 18.4491 10.862 18.2516 10.25C18.0537 9.63653 17.9312 8.90158 17.9312 7.94523C17.9312 5.59435 15.647 2.75012 12 2.75012Z" fill="#10A5E7"/>
<path fill-rule="evenodd" clip-rule="evenodd" d="M9.01827 20.2994C9.32638 20.0226 9.80057 20.0479 10.0774 20.356C11.1537 21.5539 12.7624 21.5426 13.8316 20.3554C14.1088 20.0476 14.583 20.0228 14.8908 20.3C15.1986 20.5772 15.2234 21.0514 14.9462 21.3592C13.287 23.2014 10.6397 23.2262 8.96166 21.3586C8.68482 21.0505 8.71016 20.5763 9.01827 20.2994Z" fill="#10A5E7"/>
</svg>
