<svg width="24" height="24" viewBox="0 0 24 24" fill="none" xmlns="http://www.w3.org/2000/svg">
<path fill-rule="evenodd" clip-rule="evenodd" d="M18.7071 8.79633C18.7071 10.0523 19.039 10.7925 19.7695 11.6456C20.3231 12.2741 20.5 13.0808 20.5 13.956C20.5 14.8303 20.2128 15.6602 19.6373 16.334C18.884 17.1417 17.8215 17.6574 16.7372 17.747C15.1659 17.881 13.5937 17.9938 12.0005 17.9938C10.4063 17.9938 8.83505 17.9263 7.26375 17.747C6.17846 17.6574 5.11602 17.1417 4.36367 16.334C3.78822 15.6602 3.5 14.8303 3.5 13.956C3.5 13.0808 3.6779 12.2741 4.23049 11.6456C4.98384 10.7925 5.29392 10.0523 5.29392 8.79633V8.3703C5.29392 6.68834 5.71333 5.58852 6.577 4.51186C7.86106 2.9417 9.91935 2 11.9558 2H12.0452C14.1254 2 16.2502 2.98702 17.5125 4.62467C18.3314 5.67917 18.7071 6.73266 18.7071 8.3703V8.79633ZM9.07367 20.0609C9.07367 19.5573 9.53582 19.3266 9.96318 19.2279C10.4631 19.1222 13.5093 19.1222 14.0092 19.2279C14.4366 19.3266 14.8987 19.5573 14.8987 20.0609C14.8738 20.5403 14.5926 20.9653 14.204 21.2352C13.7001 21.628 13.1088 21.8768 12.4906 21.9664C12.1487 22.0107 11.8128 22.0117 11.4828 21.9664C10.8636 21.8768 10.2723 21.628 9.76938 21.2342C9.37978 20.9653 9.09852 20.5403 9.07367 20.0609Z" fill="#93A8C0"/>
</svg>
